<svg viewBox="0 0 256 256" xmlns="http://www.w3.org/2000/svg"><path d="m242.61 43.16-6.82-8.93A26.15 26.15 0 0 0 215.12 24H206a2.181 2.181 0 0 0-.57.08 66.805 66.805 0 0 0-33.8 23.2l-1.8 2.32a1.666 1.666 0 0 0-.25.43c-1.29 2.96-12.47 29.19-8.84 38.88 3.21 8.54 8.36 16.51 12.92 22.54-30.7 21.4-14.74 53.73-9.45 64.44a15.3 15.3 0 0 1 1.55 5.4c-9.22-2.08-21.5-3.23-30.53 1.93-12.43 7.1-34.34 9.74-41.23 10.42v-23.62a1.269 1.269 0 0 0-.04-.34 1.905 1.905 0 0 0-.55-1.08L69.4 144.59a2.006 2.006 0 0 0-1.42-.59H34.02a2.006 2.006 0 0 0-1.42.59L8.59 168.6a1.905 1.905 0 0 0-.55 1.08 1.269 1.269 0 0 0-.04.34v34.08a2.039 2.039 0 0 0 .58 1.42l24.02 24.06a2.006 2.006 0 0 0 1.42.59h33.96a2.006 2.006 0 0 0 1.42-.59l11.76-11.78c4.54 1.33 37.95 11.04 52.53 13.57a59.415 59.415 0 0 0 9.61.63c18.97 0 49.17-4.78 50.7-5.02a2 2 0 0 0 1.51-1.17 59.454 59.454 0 0 0 3.97-13.85c1.09-5.67 2.03-10.57 6.55-17.07 38.38-55.14 29.01-93.73 27.69-98.35 2.39-2.33 4.84-4.67 7.24-6.9 6.96-6.71 7.04-16.25 7.04-16.65V58.93a26.253 26.253 0 0 0-5.39-15.77ZM67.15 148 90 170.89v32.26L67.15 226h-32.3L12 203.15v-32.26L34.85 148ZM244 72.99c0 .08-.07 8.22-5.79 13.75-2.81 2.6-5.68 5.37-8.45 8.09-9.59 9.4-17.92 18.28-18.03 18.39a2 2 0 0 0 2.92 2.74c.09-.11 7.14-7.62 15.71-16.12 1.85 9.45 5.66 44.96-27.61 92.77-5.01 7.2-6.07 12.73-7.2 18.59a58.434 58.434 0 0 1-3.28 12c-6.88 1.05-44.34 6.58-57.9 4.23-12.77-2.22-41.27-10.34-49.98-12.86l9.03-9.05a2.039 2.039 0 0 0 .58-1.42v-6.44c6.72-.62 29.71-3.25 43.22-10.97 8.66-4.95 21.36-3.12 30.11-.88a84.906 84.906 0 0 1 9.91 3.19 2 2 0 0 0 1.53-3.69 81.889 81.889 0 0 0-8.96-3 18.6 18.6 0 0 0-2.02-8.2c-8.52-17.25-16.86-42.11 8.34-59.51 3.81 4.73 6.78 7.72 7.06 8a1.994 1.994 0 0 0 1.41.59 2.033 2.033 0 0 0 1.42-.59 2 2 0 0 0 0-2.83c-.15-.15-15.16-15.28-21.53-32.27-2.58-6.86 5.28-27.83 8.65-35.65l1.65-2.12A62.8 62.8 0 0 1 206.3 28h8.82a22.118 22.118 0 0 1 17.49 8.66l6.82 8.93A22.167 22.167 0 0 1 244 58.93Z" fill="#09245d" class="fill-000000"></path><path d="M204.48 126.43a2 2 0 0 0-1.69 2.27c3.01 21.1-10.62 41.13-10.76 41.33a2.007 2.007 0 0 0 1.65 3.14 1.967 1.967 0 0 0 1.64-.87c.6-.86 14.66-21.49 11.42-44.17a2 2 0 0 0-2.26-1.7ZM57.24 134.23a6.772 6.772 0 0 0 1.09-.09 6.147 6.147 0 0 0 4.94-4.57c.01-.02.01-.03.02-.04a88.545 88.545 0 0 1 59.42-61.72l.95 4.64a4 4 0 0 0 6.69 1.92l16.54-16.7a5.991 5.991 0 0 0-2.43-10.11l-21.93-6.49a3.989 3.989 0 0 0-5.02 4.76l1.15 4.79a104.046 104.046 0 0 0-58.03 49.55 102.264 102.264 0 0 0-9.64 26.4 6.372 6.372 0 0 0 1.6 5.68 6.3 6.3 0 0 0 4.65 1.98ZM37.57 217.41a2.006 2.006 0 0 0 1.42.59h24.02a2.006 2.006 0 0 0 1.42-.59l16.98-16.98a2.006 2.006 0 0 0 .59-1.42v-24.02a2.006 2.006 0 0 0-.59-1.42l-16.98-16.98a2.006 2.006 0 0 0-1.42-.59H38.99a2.006 2.006 0 0 0-1.42.59l-16.98 16.98a2.006 2.006 0 0 0-.59 1.42v24.02a2.006 2.006 0 0 0 .59 1.42ZM38 187a13.008 13.008 0 1 1 3.81 9.19A12.887 12.887 0 0 1 38 187Z" fill="#09245d" class="fill-000000"></path></svg>