<svg viewBox="0 0 32 32" xml:space="preserve" xmlns="http://www.w3.org/2000/svg" enable-background="new 0 0 32 32"><path d="M29 2H3a1 1 0 0 0-1 1v20a1 1 0 0 0 1 1h9v4H9a1 1 0 1 0 0 2h14a1 1 0 1 0 0-2h-3v-4h9a1 1 0 0 0 1-1V3a1 1 0 0 0-1-1zM18 28h-4v-4h4v4zm10-6H4V4h24v18z" fill="#09245d" class="fill-000000"></path><path d="M7 14h4a1 1 0 0 0 .8-.4l1.905-2.54 2.358 6.292a1 1 0 0 0 1.644.355L21.414 14H25a1 1 0 1 0 0-2h-4a1 1 0 0 0-.707.293l-2.902 2.901-2.454-6.546A1 1 0 0 0 13.2 8.4L10.5 12H7a1 1 0 1 0 0 2z" fill="#09245d" class="fill-000000"></path></svg>