<?xml version="1.0" ?><svg viewBox="0 0 64 64" xmlns="http://www.w3.org/2000/svg"><defs><style>.cls-1{fill:none;stroke:#09245d;stroke-linejoin:round;stroke-width:2px;}</style></defs><title/><g data-name="Layer 31" id="Layer_31"><rect class="cls-1" height="22" rx="2" ry="2" transform="translate(26 102) rotate(180)" width="10" x="8" y="40"/><path class="cls-1" d="M2,42H6a2,2,0,0,1,2,2V58a2,2,0,0,1-2,2H2a0,0,0,0,1,0,0V42A0,0,0,0,1,2,42Z" transform="translate(10 102) rotate(180)"/><rect class="cls-1" height="22" rx="2" ry="2" width="10" x="46" y="40"/><path class="cls-1" d="M56,42h4a2,2,0,0,1,2,2V58a2,2,0,0,1-2,2H56a0,0,0,0,1,0,0V42A0,0,0,0,1,56,42Z"/><rect class="cls-1" height="8" width="28" x="18" y="47"/><rect class="cls-1" height="18" rx="2" ry="2" transform="translate(36 54) rotate(180)" width="10" x="13" y="18"/><path class="cls-1" d="M7,20h4a2,2,0,0,1,2,2V32a2,2,0,0,1-2,2H7a0,0,0,0,1,0,0V20A0,0,0,0,1,7,20Z" transform="translate(20 54) rotate(180)"/><rect class="cls-1" height="18" rx="2" ry="2" width="10" x="42" y="18"/><path class="cls-1" d="M52,20h4a2,2,0,0,1,2,2V32a2,2,0,0,1-2,2H52a0,0,0,0,1,0,0V20A0,0,0,0,1,52,20Z"/><rect class="cls-1" height="6" width="19" x="23" y="24"/><polyline class="cls-1" points="24 15 19 10 26 10 23 4 30 7 32 2 35 7 40 4 38 10 45 10 40 15"/></g></svg>